<?xml version="1.0"?><svg width="599.99988" height="508.56302" xmlns="http://www.w3.org/2000/svg">
 <title>blue un logo vectorised</title>

 <g>
  <title>Layer 1</title>
  <g id="layer1">
   <g fill="black" id="g2086" transform="matrix(1.69755 0 0 1.69755 -237.767 38.2553)">
    <g fill="black" id="g1987">
     <path stroke-width="16" fill="#5badff" id="path1989" d="m436.17511,221.748337c-10.774384,2.885254 -22.271454,3.812988 -32.735321,7.381348c17.722656,-15.195801 16.710907,-38.708496 28.535126,-56.605957c3.766602,-5.067383 6.879913,-10.378906 11.270508,-15.1875c-7.192352,14.427734 -4.073212,33.146484 -12.335907,47.147461c-3.180695,5.561523 -7.729523,10.957031 -12.759796,15.325195c1.643555,-0.061523 3.082062,-1.484375 4.527344,-2.43457c13.420929,-13.392578 30.954102,-17.137695 45.47168,-28.018555c5.81543,-4.633789 11.141602,-10.706055 13.698273,-17.273438c-2.747101,22.219727 -24.852539,43.045898 -45.671906,49.666016l0,0z"/>
     <path stroke-width="16" fill="#5badff" id="path1991" d="m484.524719,131.78447c-6.566376,9.34375 -14.509735,18.041992 -20.576141,27.538086c0.676758,-7.518555 1.567352,-16.763672 -1.361359,-23.885742c-5.075195,-15.336922 -9.534149,-30.909187 -10.972656,-47.741219l0.198273,-6.436523c3.819336,17.189453 20.705048,29.005859 19.639618,48.287117c0.386719,4.672852 -1.058563,8.645508 -1.933594,12.754883l0.290039,0.303711l0.760742,-0.852539c2.503937,-9.458008 3.767578,-19.403328 7.661133,-28.227547c5.533203,-12.698242 12.442413,-25.513672 9.626984,-40.845703c8.415985,18.076172 5.86618,42.227539 -3.333038,59.105476l0,0z"/>
     <path stroke-width="16" fill="#5badff" id="path1993" d="m474.160492,34.396782c11.072235,15.005371 13.499023,38.917953 5.43457,56.129868c-3.00589,7.293945 -5.128937,15.066406 -6.309601,23.139648c-0.563477,-1.392578 -0.692383,-3.264648 -1.195282,-4.816406c-4.404327,-16.847656 -20.337921,-28.854492 -26.890656,-44.738754c-2.078094,-5.194336 -3.849609,-10.561523 -4.832031,-16.200195c7.001984,12.950195 24.257843,19.639145 28.960938,33.910629c1.926758,3.609375 1.818359,8.119141 3.013672,12c0.250977,0 0.501984,-0.186523 0.501984,-0.441406c-2.070343,-14.701172 -1.438507,-30.087387 0.556641,-44.605942c-0.115265,-7.864258 -0.882843,-15.49268 -5.251984,-21.580086c2.801788,1.632324 4.063477,4.76758 6.011749,7.202644l0,0z"/>
     <path stroke-width="16" fill="#5badff" id="path1995" d="m466.353851,31.516405c2.908203,13.148932 -1.339844,25.954596 1.332001,39.229971l-0.099609,0.114258c-7.15329,-14.066391 -22.339844,-20.705063 -32.789032,-31.963364c-6.055695,-6.680672 -8.688507,-14.822762 -10.203125,-23.44385c5.987274,14.434565 22.143555,17.615232 31.418945,29.778811c3.103485,2.804199 4.11618,6.688965 6.117157,9.869141l0.327179,-0.315918c-5.334015,-11.386719 -7.121094,-24.20118 -10.842804,-36.345222c-1.863281,-5.262203 -5.561493,-10.432615 -10.523407,-13.750486c12.175781,2.488281 22.728485,15.199705 25.262695,26.82666l0,0z"/>
     <path stroke-width="16" fill="#5badff" id="path1997" d="m433.801086,1.360644c9.169922,8.207032 13.317383,18.833493 15.995117,29.843747l1.514648,3.49659c-13.30954,-9.572273 -25.400391,-22.439947 -33.899414,-36.029791l-10.379883,-10.500975c9.125,3.869139 18.962921,6.17871 26.769531,13.190428l0,0z"/>
     <path stroke-width="16" fill="#5badff" id="path1999" d="m223.595047,-10.087111c-9.200195,8.065431 -15.581055,18.265625 -22.40625,27.777345c-6.118164,7.575193 -13.944336,12.570311 -20.879883,19.084478c3.744141,-7.761726 3.880859,-17.033211 9.191406,-24.163092c7.556641,-13.183593 21.569336,-17.821777 34.094727,-22.698731l0,0z"/>
     <path stroke-width="16" fill="#5badff" id="path2001" d="m173.28157,17.998827c4.474609,-5.562499 10.147461,-9.428223 16.53125,-11.060546c-12.395508,8.51514 -11.588867,23.7749 -15.518555,36.460454c-1.25293,4.690918 -3.428711,9.012695 -4.512695,13.821289l0.31543,0.250977c2.0625,-5.436035 5.6875,-10.572266 10.211914,-15.007813c8.803711,-8.126953 21.827148,-13.191902 26.141602,-25.213873c-0.197266,16.70606 -14.133789,29.839849 -27.46875,39.22901c-5.499023,4.824219 -10.801758,10.32225 -13.830078,16.523911c-0.296875,-4.214844 0.623047,-8.446762 0.323242,-12.961899c-1.450195,-14.583496 -2.503906,-31.229012 7.806641,-42.04151l0,0z"/>
     <path stroke-width="16" fill="#5badff" id="path2003" d="m148.201492,67.866493c-0.373047,-14.778305 5.760742,-26.841782 14.404297,-37.85302c0.250977,-0.125488 0.429688,-0.376465 0.75293,-0.315918c-9.514648,14.458504 -1.643555,32.670418 -2.077148,49.110344l-1.254883,16.832031c0.186523,0.12207 0.186523,0.62793 0.62793,0.433594c0.5625,-1.875977 0.68457,-3.880859 1.060547,-5.810547c2.241211,-13.577148 14.032227,-23.210938 24.331055,-32.593735c2.199219,-2.454102 4.143555,-4.945801 5.273438,-7.825684c-0.84082,6.760254 -2.959961,13.578609 -5.764648,19.830551c-8.015625,15.631836 -22.823242,28.458008 -25.52832,46.354492c-1.3125,-17.150391 -12.989258,-29.972656 -11.825195,-48.162109l0,0z"/>
     <path stroke-width="16" fill="#5badff" id="path2005" d="m141.00325,88.882118c1.06543,-4.62207 1.879883,-9.405273 3.891602,-13.646484c-3.811523,19.537109 9.329102,33.614258 13.639648,50.548828c1.803711,6.333992 2.245117,13.136726 4.824219,19.080086c0.240234,0.129883 0.449219,-0.121094 0.597656,-0.311523c-6.417969,-17.989265 2.84668,-34.706062 12.15625,-48.791023c2.263672,-3.816406 3.568359,-8.066406 4.694336,-12.453125c0.989258,8.141602 -1.069336,17.517578 -2.251953,25.970703c-2.263672,10.755859 -5.642578,20.956062 -8.583984,31.392586c-1.935547,6.521484 -1.426758,13.878906 -0.432617,20.711914l-0.932617,-0.745117c-6.825195,-12.585938 -20.339844,-22.402344 -24.353516,-36.152351c-3.302734,-10.961914 -5.498047,-23.660156 -3.249023,-35.604492l0,0z"/>
     <path stroke-width="16" fill="#5badff" id="path2007" d="m140.387039,127.040321c1.50293,20.708015 23.771484,31.650398 34.09375,48.793953c2.442383,3.507813 4.561523,7.388672 7.825195,10.325195c-0.509766,-2.206055 -2.568359,-4.0625 -3.324219,-6.322266c-3.611328,-7.19043 -4.927734,-15.758789 -4.05957,-24.449219c1,-10.577148 5.436523,-20.392578 3.743164,-31.517586c9.070313,19.556648 6.31543,43.966805 11.386719,65.158211c1.328125,4.634766 4.010742,8.773438 5.768555,13.203125c-18.635742,-12.692383 -44.046875,-24.768555 -52.314453,-48.030273c-3.484375,-8.020508 -3.873047,-17.950195 -3.119141,-27.16114l0,0z"/>
     <path stroke-width="16" fill="#5badff" id="path2009" d="m151.518875,174.59404c10.390625,23.505859 36.414063,25.453125 53.862305,39.766602c3.210938,2.845703 6.575195,5.265625 10.200195,6.954102l0.186523,-0.189453c-4.005859,-3.62207 -8.639648,-7.74707 -11.444336,-12.441406c-10.211914,-14.199219 -6.620117,-34.089844 -14.271484,-49.361328c6.952148,8.316406 13.274414,16.960938 17.47168,26.395508c6.243164,15.401367 8.628906,32.796875 23.075195,44.438965c-15.633789,-5.152344 -33.949219,-3.712891 -47.748047,-13.339355c-15.066406,-9.259766 -28.512695,-24.96582 -31.332031,-42.223633l0,0z"/>
     <path stroke-width="16" fill="#5badff" id="path2011" d="m178.223953,218.445602c16.660156,18.947754 43.882813,12.625488 66.075195,17.584473c3.134766,0.427734 6.003906,1.683594 9.326172,1.173828c-2.645508,-1.673828 -6.316406,-1.492188 -9.204102,-3.013672c-17.395508,-6.111328 -19.947266,-24.943848 -29.390625,-37.643066c12.064453,8.011719 22.207031,18.817383 33.336914,29.287598c7.999985,7.007813 17.629898,10.242188 27.776382,12.304688c-2.438507,0.890625 -5.634766,0.646484 -8.251953,1.332031c-18.228531,4.482422 -38.480484,11.808594 -57.811539,5.25c-12.567383,-3.957031 -25.533203,-13.894531 -31.856445,-26.275879l0,0z"/>
     <path stroke-width="16" fill="#5badff" id="path2013" d="m404.346039,262.612091c-18.773468,7.005859 -38.366211,-0.320313 -53.029327,-11.439438c-5.936493,-3.773438 -11.169922,-9.207031 -18.848633,-8.726563c-2.785156,-0.052734 -5.470673,0.083984 -7.837891,0.767578c14.245148,6.628906 27.477539,15.767563 39.576202,27.455093c-2.039093,2.328094 -4.679718,4.505829 -7.166992,6.513641c-11.65918,-12.5625 -24.57132,-24.654282 -39.028351,-31.716782c-2.831055,0.367188 -5.524384,2.070313 -8.077118,3.441406c-11.769562,7.441422 -23.407257,17.013687 -32.157257,28.732437l-7.518555,-6.209015c12,-12.138672 25.273468,-21.587875 39.793976,-28.337875c-14.268585,-4.519531 -23.582062,7.433594 -34.413086,13.513657c-12.621124,8.812531 -30.772476,12.951172 -46.025406,6.871094c-8.203125,-3.111328 -16.150391,-7.693329 -22.089844,-15.14061c12.003906,8.269516 29.881836,9.136703 43.533203,3.765625c18.318344,-7.945313 37.3535,-18.017578 59.436508,-13.201172c3.446289,0.060547 6.794922,3.492188 10.050812,0.570313c16.413086,-4.261719 34.995117,-1.332031 49.125946,6.169922l14.564453,5.837891c13.537109,5.005875 31.039063,3.621094 42.642578,-4.626953c-5.96582,7.425781 -14.115234,12.746109 -22.531219,15.75975l0,0z"/>
     <path stroke-width="16" fill="#5badff" id="path2015" d="m424.464172,243.213669c-21.078094,7.958984 -42.283203,-1.810547 -62.479462,-5.074219l-3.888702,-0.494141l0,-0.123047c9.657227,-2.191406 19.031281,-5.066406 26.717804,-12.005859c11.321289,-10.882324 21.395508,-22.083496 33.967743,-30.658691c-9.323242,11.954102 -10.311523,28.969238 -25.712891,36.654785c-3.811523,2.494141 -8.62207,2.935547 -12.555634,4.824219c5.609344,0.121094 10.745087,-1.888672 16.299805,-2.451172c20.652313,-3.242188 44.27832,0.083984 58.766602,-17.509277c-5.378937,12.259277 -18.84964,22.524902 -31.115265,26.837402l0,0z"/>
     <path stroke-width="16" fill="#5badff" id="path2017" d="m462.762024,183.907516c-8.324219,5.448242 -16.761719,10.500977 -24.760712,16.695313l0,-0.760742c12.251923,-20.362305 6.262665,-48.334961 13.811523,-70.744141l2.815399,-7.506844c-1.575165,13.959969 4.488281,25.785164 4.062531,39.792976c-0.425812,8.461914 -3.187531,15.964844 -7.630859,22.72168l0.75293,0c6.002899,-7.883789 10.690399,-16.268555 17.706024,-23.77832c10.889648,-10.500977 21.960968,-21.268555 23.390656,-35.840828c3.698242,24.327156 -9.952148,45.648445 -30.147491,59.420906l0,0z"/>
    </g>
    <g fill="black" id="g2019">
     <polygon stroke-width="16" fill="#5badff" fill-rule="evenodd" id="polygon2021" points="314.9012145996094,130.8914008140564 318.67803955078125,130.8914008140564 318.67803955078125,225.7136664390564 314.9012145996094,225.7136664390564 314.9012145996094,130.8914008140564 "/>
     <polygon stroke-width="16" fill="#5badff" fill-rule="evenodd" id="polygon2023" points="294.39874267578125,121.57840490341187 297.06671142578125,124.24979162216187 229.9651641845703,191.2488226890564 227.2971954345703,188.5754828453064 294.39874267578125,121.57840490341187 "/>
     <polygon stroke-width="16" fill="#5badff" fill-rule="evenodd" id="polygon2025" points="287.9847106933594,101.82498693466187 287.9788513183594,105.60135412216187 193.1565704345703,105.48807287216187 193.1604766845703,101.71121740341187 287.9847106933594,101.82498693466187 "/>
     <polygon stroke-width="16" fill="#5badff" fill-rule="evenodd" id="polygon2027" points="296.9871520996094,83.53690099716187 294.31524658203125,86.20633459091187 227.2747344970703,19.14677381515503 229.9461212158203,16.477342128753662 296.9871520996094,83.53690099716187 "/>
     <polygon stroke-width="16" fill="#5badff" fill-rule="evenodd" id="polygon2029" points="318.6365661621094,75.74881505966187 314.8597106933594,75.74588537216187 314.9466247558594,-19.07832384109497 318.72344970703125,-19.07441759109497 318.6365661621094,75.74881505966187 "/>
     <polygon stroke-width="16" fill="#5badff" fill-rule="evenodd" id="polygon2031" points="337.61407470703125,84.79422521591187 334.9461364746094,82.12039709091187 402.0862731933594,15.160449504852295 404.75421142578125,17.833787441253662 337.61407470703125,84.79422521591187 "/>
     <polygon stroke-width="16" fill="#5badff" fill-rule="evenodd" id="polygon2033" points="344.93682861328125,105.89822912216187 344.93292236328125,102.12186193466187 439.75421142578125,102.00272130966187 439.76104736328125,105.77908849716187 344.93682861328125,105.89822912216187 "/>
     <polygon stroke-width="16" fill="#5badff" fill-rule="evenodd" id="polygon2035" points="333.98858642578125,125.19803380966187 336.6565856933594,122.52420568466187 403.7630310058594,189.5178656578064 401.0950622558594,192.1912055015564 333.98858642578125,125.19803380966187 "/>
     <path stroke-width="16" fill="#5badff" fill-rule="evenodd" id="path2037" d="m352.152649,8.822557c52.226563,19.521971 78.768555,77.74999 59.246094,129.973631c-19.522461,52.223633 -77.750458,78.766113 -129.972168,59.243652c-52.225571,-19.520996 -78.764145,-77.748055 -59.24559,-129.972664c19.522949,-52.224598 77.750015,-78.765128 129.971664,-59.244619l0,0zm-1.52832,4.094729c49.962891,18.676755 75.355499,74.384753 56.680664,124.34814c-18.675781,49.964844 -74.387177,75.356445 -124.349609,56.679688c-49.962875,-18.674805 -75.354477,-74.383797 -56.679672,-124.347664c18.676758,-49.963371 74.385727,-75.355947 124.348618,-56.680163l0,0z"/>
     <path stroke-width="16" fill="#5badff" fill-rule="evenodd" id="path2039" d="m344.051086,30.50029c40.260742,15.048836 60.717773,59.935051 45.671875,100.193848c-15.049774,40.258301 -59.938477,60.717773 -100.194336,45.669922c-40.256332,-15.047852 -60.717758,-59.936043 -45.669907,-100.194344c15.047867,-40.257797 59.93602,-60.717762 100.192368,-45.669426l0,0zm-1.536133,4.118172c37.982422,14.198242 57.289063,56.552231 43.09082,94.53759c-14.198242,37.98584 -56.555176,57.291016 -94.537109,43.09082c-37.985825,-14.198242 -57.292953,-56.552742 -43.092758,-94.537605c14.20018,-37.985825 56.552719,-57.291008 94.539047,-43.090805l0,0z"/>
     <path stroke-width="16" fill="#5badff" fill-rule="evenodd" id="path2041" d="m336.191254,51.5252c28.654755,10.710449 43.216278,42.657211 32.507324,71.309555c-10.713867,28.651863 -42.660156,43.21534 -71.310577,32.503914c-28.653809,-10.710938 -43.215317,-42.657234 -32.503876,-71.30909c10.710938,-28.65184 42.657196,-43.21434 71.307129,-32.504379l0,0zm-1.407745,3.768555c26.573242,9.933098 40.079102,39.560532 30.145508,66.133286c-9.93454,26.572273 -39.560547,40.07618 -66.133301,30.143074c-26.572266,-9.931641 -40.076172,-39.560066 -30.144501,-66.13282c9.933075,-26.571274 39.55954,-40.076157 66.132294,-30.143539l0,0z"/>
     <path stroke-width="16" fill="#5badff" fill-rule="evenodd" id="path2043" d="m327.351379,75.175575c15.598175,5.830566 23.525879,23.220703 17.694855,38.819336c-5.831085,15.596199 -23.219757,23.524422 -38.81839,17.692879c-15.598145,-5.829597 -23.524384,-23.219734 -17.694824,-38.818367c5.831543,-15.597168 23.223633,-23.524414 38.818359,-17.693848l0,0zm-1.524902,4.07666c13.350586,4.989258 20.131866,19.871582 15.144531,33.219238c-4.991669,13.347168 -19.871094,20.12989 -33.217773,15.140633c-13.349121,-4.989265 -20.131836,-19.870613 -15.144531,-33.218758c4.991211,-13.347656 19.874542,-20.130859 33.217773,-15.141113l0,0z"/>
     <path stroke-width="16" fill="#5badff" fill-rule="evenodd" id="path2045" d="m375.702454,-6.154004c61.084961,33.61572 84.270508,109.993154 51.749023,170.482419c-32.517548,60.491699 -108.489746,82.304199 -169.574219,48.688965c-61.083969,-33.614746 -84.270004,-109.993172 -51.74852,-170.483391c32.519531,-60.491219 108.488785,-82.303223 169.573715,-48.687993l0,0zm-2.137695,3.97998c58.867188,32.394529 81.208984,105.99706 49.868195,164.292478c-31.336945,58.293457 -104.550812,79.314941 -163.415558,46.919922c-58.868637,-32.396484 -81.210434,-105.999031 -49.870102,-164.293449c31.336914,-58.294438 104.54982,-79.314453 163.417465,-46.918951l0,0z"/>
     <path stroke-width="16" fill="#5badff" id="path2047" d="m390.525696,162.038864c0.07132,0.648926 -0.151367,2.246094 0.151367,2.612793c0.313507,0.497559 1.483429,0.391602 1.990265,0.21582c1.384766,-0.520508 2.762665,-2.350098 3.402313,-3.72168c0.450195,-0.696289 0.75293,-1.511719 0.654297,-2.423828l-0.96875,-2.93457c-0.242157,-1.029297 -0.567383,-2.838379 -1.665009,-3.265625c0.102509,-0.272461 0.450195,-0.698242 0.409149,-1.088379c-0.253906,-1.159668 -2.191376,-0.85498 -2.883789,-0.003418c-0.348602,0.425781 -0.25,1.335449 -0.325195,1.867188c-0.019531,1.054199 -0.314453,3.182617 -0.734375,4.140137c-0.419922,0.955566 -1.59668,2.244141 -1.612305,3.297852c0.083038,0.779297 0.919922,1.22998 1.582031,1.303711l0,0zm-64.47998,-8.141602l0.344238,0.756836c0.015137,0.130371 0.17041,0.378418 0.302734,0.367188c0.87793,0.841797 2.10791,-1.108887 0.639679,-1.370117c-0.132355,0.01123 -0.404785,-0.09668 -0.522003,0.04541c-0.257324,0.024414 -0.518555,0.047363 -0.764648,0.200684l0,0zm0.972656,-1.92627c-0.594238,0.577148 -0.810059,0.991699 0.155304,1.430176l-0.155304,-1.430176l0,0zm-15.659149,-11.469727c-0.953644,0.87207 -0.881378,0.342285 -1.369659,0.648926c-0.363281,0.292969 -0.060547,0.660156 -0.393555,1.216309c-0.102539,0.272461 -0.480469,0.4375 -0.450195,0.698242c-0.087372,0.401367 0.329102,0.626465 0.733887,0.721191c0.533691,0.083008 2.092773,-0.055176 2.580566,-0.361328c0.480957,-0.4375 0.291504,-0.946289 0.511261,-1.36084c0.117188,-0.141602 0.348114,-0.425293 0.465332,-0.567383c0.05661,-0.662109 -1.339874,-1.457031 -2.077637,-0.995117l0,0zm37.600067,-4.030273l0.139679,1.299805l-0.151367,1.06543c1.415039,-0.259277 2.286133,-0.730469 3.541962,-1.237793c0.375,-0.164551 1.124023,-0.495605 1.415039,-0.258789c0.416992,0.227051 0.197266,0.63916 0.094727,0.911621c-0.204102,0.542969 -1.013672,1.536621 -1.362274,1.962402c-1.055695,1.144531 -2.614258,1.284668 -3.931671,2.454102c-0.707977,0.720703 -0.896484,1.394043 -1.608398,2.115234c-0.707031,0.71875 -1.214844,0.896973 -1.578125,1.191895c-0.347626,0.425781 -0.056641,0.662109 -0.793945,1.12207l0.419922,-0.955566c-0.401337,-0.09668 -0.923828,-0.049316 -1.226563,-0.417969c-0.169922,-0.376465 -0.211914,-0.768555 -0.125,-1.169434c0.178711,-0.804199 0.34082,-2.921387 0.806641,-3.489258c0.117188,-0.141602 1.12796,-0.495605 1.501953,-0.660156l-0.173828,0.804199c0.389648,-0.03418 1.03714,-0.092773 1.282257,-0.246094c0.636719,-0.188965 1.275391,-1.561035 1.608368,-2.115234l-1.762665,0.683105c0.306641,-0.81543 1.176727,-2.469238 1.90329,-3.05957l0,0zm-34.856445,3.914551c-0.264618,1.20752 0.473145,0.745605 0.919434,1.231934c0.287598,0.236328 0.32959,0.626465 0.371094,1.018066l-1.025391,0.223145l-0.450653,0.696289l-0.579102,0.709473l1.759766,0.499512c-0.881378,0.34082 -1.41507,0.257324 -1.979034,1.097656l2.206055,-0.19873c1.441895,0.001953 2.524414,0.298828 3.882813,-0.480957l-0.287598,-0.236328l0.393555,-1.218262l-0.97995,-0.567871l-0.344757,-0.756836l-1.649902,-1.95459l-0.54834,-0.213867c0.465332,-0.567383 1.403809,-1.572266 0.063995,-1.844727l-0.66214,-0.071777l0.579102,-0.709473c-0.794891,-0.058594 -1.457001,-0.130859 -2.05127,0.448242c-0.696289,0.849609 -0.715332,1.901855 0.382324,2.329102l0,0zm-0.768036,-16.877449l-0.030273,0.921387l-0.302734,-0.366699l0.037598,1.572266c0.230927,0.900391 1.24118,0.546875 1.472137,0.262695c0.246094,-0.152832 0.317902,-0.686523 0.291504,-0.945801c-0.026367,-0.259277 -0.185516,-0.508789 -0.329102,-0.626465c-0.276337,-0.10791 -0.405273,-0.096191 -0.666016,-0.07373l-0.083496,-0.779297l-0.389618,0.035645l0,0zm-107.033707,8.289558c-0.05127,1.975098 0.46875,1.927734 0.909668,3.59668c0.229004,0.898926 -0.132324,1.193848 0.583008,2.96875c0.344238,0.758789 0.556152,1.526855 1.377441,1.84668c-0.236328,-2.211914 -0.507324,-3.500488 -1.249023,-5.536133c-0.529785,-1.266113 -0.93457,-1.360352 -1.362305,-2.900879l-0.258789,0.024902l0,0zm179.433609,-21.617195c-0.620148,0.317871 -0.839844,0.731934 -0.768555,1.380859c-0.060577,0.664063 0.514618,1.137207 1.15036,0.948242c0.881866,-0.34082 1.033203,-2.588379 -0.381805,-2.329102l0,0zm-122.776855,-0.28418c-0.319824,0.687012 -0.380402,1.349121 0.325165,1.811035c-0.069794,-0.648926 0.119141,-1.324707 -0.325165,-1.811035l0,0zm38.360321,0.632324l0.433105,0.355469c0.953613,-0.874023 1.158234,-1.418945 1.854492,-2.268555c0.578613,-0.709473 0.96875,-0.743652 1.330109,-1.038574c0.230469,-0.28418 0.202148,-0.544922 0.289032,-0.946289c0.20462,-0.544922 0.581055,-0.709473 0.484375,-1.619629c0.045898,-0.79248 -0.470703,-1.928223 -1.365723,-1.716797l-0.200653,-0.638672c-0.389679,0.034668 -1.025391,0.223145 -1.386749,0.517578c-0.361298,0.295898 -0.17627,0.804688 -0.652832,1.241699c-0.579102,0.708008 -1.589355,1.061523 -1.835419,1.214844c-0.376495,0.166504 -0.204132,0.544922 -0.813477,0.993652c-0.851563,0.601563 -1.413605,0.257324 -1.918976,0.435059c-0.635712,0.1875 -1.577606,1.191895 -2.054688,1.628906c-0.696289,0.849609 -0.898438,1.394531 -1.189941,2.34082c-0.102051,0.270508 -0.319824,0.68457 -0.162598,0.93457c0.156738,0.248047 0.546906,0.211914 0.794434,0.058594c0.505371,-0.175781 1.617706,-0.800293 2.02298,-0.705566c0.387665,-0.036133 0.546387,0.213379 0.82077,0.319824c0.40332,0.094238 0.662628,0.071777 0.936523,0.177734c0.272491,0.10791 0.575195,0.474609 0.862793,0.711426c0.690918,0.331055 1.387207,-0.518555 1.591309,-1.061523c0.102051,-0.272461 0.202667,-0.544922 0.161133,-0.93457l0,0zm0.754883,-10.052734l0.015167,0.130371l-0.146027,-0.118164l0.130859,-0.012207l0,0zm1.150391,0.947754c0.344238,0.757813 1.611816,1.562988 2.331085,2.15625c0.245605,-0.15332 0.361298,-0.29541 0.463348,-0.566895c0.319824,-0.686035 0.179718,-1.987793 -0.512695,-2.319824c-0.415985,-0.225098 -0.92334,-0.047852 -1.297852,0.116699c-0.015137,-0.129883 -0.185547,-0.508301 -0.329102,-0.627441c-1.021973,-0.958984 -2.300781,1.783203 -0.654785,1.241211l0,0zm-5.432129,-1.745117c0.876007,0.84082 0.891113,0.970215 2.060577,0.865234c-0.178253,0.804199 -1.21875,2.080566 -2.070343,1.500488c-0.560059,-0.344238 -0.616699,-0.864746 -0.88916,-0.97168c-0.417938,-0.225098 -0.450195,0.697266 -0.681152,0.980469c-0.552704,0.969238 -1.475586,0.921387 -1.566376,2.505859l0.491669,-0.308594c0.499542,1.006836 1.426758,-0.126465 2.049347,-0.445313c-0.115723,0.14209 -0.348145,0.426758 -0.44873,0.697266c-0.090851,0.402832 0.342773,0.758789 0.719238,0.592285c0.374512,-0.165039 0.824677,-0.862793 1.18457,-1.158203c0.363281,-0.293945 0.491669,-0.305664 0.868164,-0.472168c0.361298,-0.293945 0.838348,-0.730957 1.20163,-1.026367c1.085938,-0.885254 1.140625,-0.365234 1.521027,-1.713379c-0.030273,-0.259766 0.086884,-0.401855 0.058563,-0.662109c-0.516602,-1.13623 -2.37793,-0.180664 -2.523926,-0.297852l-0.808075,-0.191406c-0.272491,-0.106934 -0.779327,0.070313 -1.167023,0.105469l0,0zm6.001465,-0.275391l-0.648895,0.057617l0.172333,0.378418c0.766144,-0.199707 1.284668,-0.24707 1.316925,-1.169434c-0.649445,0.058594 -0.779816,0.069824 -0.840363,0.733398l0,0zm-40.908661,2.486816l-0.602081,2.945313l0.269043,1.288574l0.541016,2.578613c0.333008,-0.554199 0.930695,-2.315918 0.991211,-2.978027l0.14798,-1.06543c0.04541,-0.791504 0.14743,-1.062988 -0.196777,-1.820801l-0.840332,0.731934l-0.05127,-1.702637l-0.258789,0.022461l0,0zm42.253906,-3.396973c-0.083008,-0.780762 0.060516,-0.661621 0.722626,-0.590332l-0.009277,-1.312988c-0.376465,0.165039 -0.89502,0.212402 -1.258301,0.506836c-0.579071,0.708496 -0.506805,1.360352 0.544952,1.396484l0,0zm-3.859894,-1.754883l0.444824,0.485352c0.89502,-0.211914 1.182617,0.024414 1.990234,0.215332l-0.315887,-0.497559l0.332977,-0.555176c0.779785,-0.068848 0.840332,-0.732422 0.51123,-1.359375c-0.144043,-0.118652 -0.418457,-0.225098 -0.561981,-0.344238c-1.398468,-0.792969 -1.530792,0.400879 -1.8638,0.956055l-0.537598,1.099609l0,0zm3.362335,-0.433594c0.259277,-0.023438 0.520477,-0.046387 0.766083,-0.199219c0.477051,-0.4375 0.208496,-1.727539 -0.211914,-1.952148c-0.402802,-0.095215 -0.620117,0.317871 -0.591766,0.578125l-0.088898,0.40332l0.069824,0.649902l0.056671,0.52002l0,0zm-41.749054,3.220703c0.463409,-0.566895 0.624512,-1.501465 0.685059,-2.164063c-0.866699,0.473145 -0.783203,1.25293 -0.685059,2.164063l0,0zm4.601563,-8.426758c0.125,1.171387 -0.022461,2.235352 -0.431152,3.322754c-0.52243,1.22998 -1.782715,2.919434 -2.047333,4.124512l-0.300812,-0.367188c-0.565918,0.839355 -0.630371,2.685059 -0.270508,3.571777c0.70752,-0.720215 0.870117,-1.654785 1.305176,-2.481934c0.857422,-1.78418 2.001984,-3.331543 2.440948,-5.342285c0.075653,-0.532227 0.18161,-1.987305 -0.13623,-2.483887c-0.157227,-0.249023 -0.287628,-0.236816 -0.560089,-0.34375l0,0zm118.264191,3.445801c0.68161,-0.981445 0.863251,-2.966797 1.123993,-4.174316c0.617188,-2.813477 1.918976,-4.112305 1.540039,-7.625977c-0.082977,-0.780273 -0.381805,-2.330078 -1.316406,-2.509766c-1.457001,-0.131348 -0.859375,1.785156 -0.946289,2.187012c0.041992,0.391113 -0.060516,0.662598 -0.163086,0.935059c-0.638672,1.370605 -0.339844,2.92041 -0.317383,4.363281l-0.276367,4.754395l0.355499,2.070313l0,0zm-21.032257,-22.41748c0.026367,0.259766 0.169952,0.378906 0.329132,0.626953c0.143555,0.119141 0.288055,0.237305 0.431641,0.355957c0.835907,0.450195 1.271484,-0.376465 0.953094,-0.874512c-0.154297,-0.248535 -0.688446,-0.332031 -0.949219,-0.308105c-0.257782,0.023438 -0.518555,0.046387 -0.764648,0.199707l0,0zm19.427734,-2.269043c0.125,1.171387 0.594757,3.100586 1.097656,4.105957l1.146515,2.130371l1.354462,4.08252c0.696289,-0.850586 0.326172,-1.868652 0.098633,-2.767578c-0.585938,-1.786621 -1.430664,-3.550293 -2.133789,-5.194336c-0.488281,-0.875977 -0.84375,-1.764648 -1.563477,-2.356934l0,0zm-7.178711,-2.114258l-0.105438,1.454102l-1.775421,-0.629395c-0.029297,0.923828 0.382813,2.331543 1.117218,3.053223l1.425781,1.054688c1.15036,0.948242 2.316376,2.026367 3.349579,3.115234c0.908234,1.101563 0.949249,1.492188 1.263702,1.98877c0.288086,0.236328 0.575165,0.474121 0.950165,0.308594c0.246094,-0.15332 0.306641,-0.81543 0.408234,-1.087891l0.435516,-0.827148c0.189453,-0.67334 -0.310547,-1.679199 -0.639648,-2.307129l-0.859344,-1.893066c-0.359406,-0.887695 -0.575195,-1.656738 -1.176788,-2.390625c-1.021454,-0.959473 -1.800781,-0.889648 -2.879852,-1.1875l-1.513702,-0.651855l0,0zm-36.131836,1.796387c-0.076172,0.532715 -0.121094,1.325684 -0.756836,1.513672c-0.128906,0.011719 -0.662109,-0.071777 -0.806641,-0.190918l-0.495117,1.490234c-0.219696,0.413086 -0.628387,1.500977 -0.583008,1.89209c-0.060516,0.661133 0.847687,0.57959 1.30957,0.013184c0.480499,-0.437012 0.541016,-1.099609 0.874023,-1.654785c0.537109,-1.099121 1.532227,-1.583496 1.65332,-2.907227l-1.195313,-0.15625l0,0zm40.25296,-4.925774c0.386688,1.148438 0.658173,1.255363 1.291016,2.249504c0.329071,0.627441 0.242157,1.029297 1.005829,0.82959c-0.457001,-0.615723 -1.732391,-2.734856 -2.296844,-3.079094l0,0zm-54.458984,6.988274c-1.457062,-0.131348 -0.495636,1.490234 -0.685089,2.163574c-0.317841,0.686035 -1.77832,1.736816 -2.48584,1.274414c-0.374969,0.165527 -0.764618,0.200684 -1.169403,0.10498c-0.401367,-0.095703 -0.688965,-0.332031 -1.078613,-0.296875l-2.069855,1.499512c-0.363281,0.294922 -0.851532,0.601563 -1.373535,0.647949c-0.38623,0.035156 -0.908203,0.081055 -1.13913,0.366211c-0.363312,0.293945 -0.019073,1.051758 0.155243,1.430176l0.616699,0.864746c-1.271454,0.376465 -1.173309,1.286621 -1.048309,2.458984c0.071747,0.649902 0.321747,2.992188 0.507294,3.500977c0.200195,0.639648 1.051788,1.219727 1.725616,1.420898c0.419891,0.226563 1.082031,0.297363 1.47168,0.263184l0.09079,-1.585449l0.390137,-0.03418l0.400909,1.27832c0.128906,-0.012695 0.389618,-0.035156 0.518555,-0.047363l1.615723,0.381348c0.144012,0.118164 0.144012,0.118164 0.287598,0.236328c0.17038,0.378418 -0.147461,1.064453 -0.105988,1.455078c0.227081,0.898438 1.165558,1.077637 1.945343,1.007324c-0.019073,1.052246 0.082977,0.780762 0.022461,1.442871c0.071747,0.650879 -0.317902,0.686035 0.484344,2.058594c0.15918,0.248047 0.488281,0.875977 0.87796,0.84082c0.389618,-0.034668 1.199707,-1.027344 2.066406,-1.499023c0.200165,0.638184 0.215302,0.769043 0.77536,1.113281l-0.188934,0.67334l1.475555,-0.92041c-0.438965,2.009766 -1.274902,1.559082 -2.187012,2.823242c-0.321747,0.686523 -0.121094,1.325195 -0.310547,1.999023l0.144043,0.118164l0.491699,-0.306641l0.375,-0.164551c1.153839,-0.23584 0.257324,1.158691 0.283691,1.418945c0.041534,0.391113 0.317902,0.496582 0.590363,0.604492l-0.609406,0.447754l0.359375,0.888184l-2.338379,0.209961c-1.154266,0.234863 -2.111816,1.108887 -3.080566,1.852539l0.030304,0.260254l0.401337,0.095215l-2.240234,1.121094c0.677246,0.200684 1.559082,-0.140137 2.209991,-0.19873c0.635742,-0.188965 0.518555,-0.04541 1.286591,-0.247559l0.416016,0.227051l-0.075684,0.531738l2.853516,0.925293c0.677277,0.202148 1.169464,-0.104492 1.589386,0.121094c0.560028,0.344238 0.370575,1.017578 1.309082,1.195313c1.078613,0.297363 1.934052,-0.304199 2.827148,-0.516113l-1.056183,1.146484l0.488281,0.875977l1.271484,-0.376465c-0.942383,1.00293 -0.896973,0.211914 -2.713379,0.374512c0.416504,0.225098 1.653839,0.77002 1.930206,0.87793c0.677216,0.202637 1.036621,-0.094727 1.990204,0.21582c0.806152,0.188965 1.786133,0.758789 2.047363,-0.44873c0.158691,0.25 0.317902,0.498047 0.461426,0.617188c0.416992,0.225098 0.677734,0.202148 1.083038,0.296875c0.533203,0.083496 1.796844,0.88916 1.740204,1.551758c-0.117188,0.141602 -0.234344,0.283691 -0.347656,0.425781c-0.174805,-0.380371 -0.344696,-0.756836 -0.64743,-1.124023c-0.745117,-0.853516 -1.888702,-0.488281 -2.826691,-0.667969l-1.888672,-0.486328l-1.456512,-0.132324c-0.791016,-0.060547 -1.237823,-0.544922 -2.01712,-0.475098c-0.26123,0.022949 -0.635712,0.1875 -0.605438,0.448242c0.026337,0.259277 0.313934,0.498047 0.458008,0.615234c0.835938,0.450195 0.533173,0.083008 1.80127,0.88916c0.703583,0.461914 0.949677,0.308594 1.626923,0.510742l0.692383,0.333008c0.533691,0.083496 0.635742,-0.188965 1.169434,-0.105957c0.257324,-0.022461 0.791016,0.060547 1.066895,0.168457l-2.254852,0.989746l-1.729523,-0.238281c0.344238,0.756836 0.488281,0.875977 -0.09082,1.583496l-0.317871,-0.495605c-0.348145,0.423828 -0.317841,0.685059 -0.666016,1.110352l-0.579102,0.708008c-0.102051,0.272461 -0.450195,0.698242 -0.711395,0.720703c-0.389648,0.036133 -0.83252,-0.450195 -1.124054,-0.686523c-0.560059,-0.344727 -0.820801,-0.321777 -1.456512,-0.132813c0.476532,0.745605 0.722626,0.592285 1.411102,0.92334c0.563965,0.344238 2.001953,1.528809 2.44873,2.015137c-0.132782,0.01123 -0.26123,0.022949 -0.363281,0.29541c-0.230927,0.283691 0.022461,1.443359 0.325195,1.808594c0.287628,0.238281 0.563965,0.344238 0.949707,0.310547l-1.547333,1.453125c0.677246,0.200195 0.92334,0.047363 1.498505,0.521973l-1.29834,0.115234l-1.713867,-1.290039l-1.786102,-0.760742c0.665985,0.071777 1.717773,0.109863 2.338348,-0.209961c1.112823,-0.624512 0.583038,-1.890137 -0.279785,-2.601563c-0.560059,-0.344727 -0.950195,-0.308594 -1.612305,-0.380371c-0.533691,-0.083496 -1.354492,-0.404785 -1.876953,-0.35791l-1.415039,0.259277l0.09082,-0.402832c-0.405273,-0.094727 -0.548828,-0.213867 -0.912109,0.081543c-0.431641,-0.355957 -0.442841,-0.484375 -0.976532,-0.567871l0.068359,0.648926l-0.590363,-0.603516l-0.05661,0.662109c-0.317902,-0.497559 -0.333038,-0.625977 -0.87796,-0.839844l0.438995,1.666992l-0.215851,0.414063c-0.722656,0.590332 -0.715332,1.903809 -0.628418,2.685059c0.166504,1.561035 -0.181641,1.986816 -0.313934,3.180664c-0.03421,0.921387 0.268524,1.288574 0.019012,2.625984c-0.071777,0.531738 -0.567841,2.020996 -0.787109,2.435547l-0.579102,0.70752l-0.435059,0.82666c-0.219696,0.414551 -0.579102,0.709473 -0.798309,1.124023c-0.20462,0.542969 0.083008,0.78125 0.242157,1.029297c0.215332,0.768066 -0.333008,0.554199 0.571289,1.657227l-0.461914,0.565918l0.518555,-0.047363c-0.291473,0.946289 0.298859,1.551758 1.191925,1.339844c0.635742,-0.189453 1.332001,-1.039063 1.521454,-1.714355l0.26123,-0.022949l1.748077,2.864746c0.302704,0.367188 0.374481,1.018066 0.908173,1.101074c0.533722,0.083496 0.734406,-0.459473 0.953613,-0.874023c0.230957,-0.283691 0.477081,-0.437012 0.70755,-0.720703c0.321747,-0.685059 -0.310059,-1.680176 -0.249542,-2.342773c0.071777,-0.53125 0.435059,-0.82666 0.495605,-1.48877c-0.098114,-0.910156 -0.775848,-1.112793 -1.222168,-1.599121c-0.446777,-0.484375 -0.499481,-1.004395 -0.571289,-1.655273c-0.155243,-1.432617 0.58252,-1.89209 0.71875,-3.085938c0.04541,-0.792976 -0.400879,-1.277351 -0.458008,-1.799324c-0.041504,-0.390137 0.04541,-0.791016 0.435577,-0.827148c0.896454,-0.211914 1.006317,0.830566 1.078125,1.47998l-0.121124,1.324226c-0.071777,0.533691 -0.290985,0.946289 -0.219208,1.59668c0.185516,0.509277 0.488251,0.876465 0.658173,1.254883c0.302765,0.366699 0.344757,0.758789 0.632324,0.995117c0.272461,0.105957 0.416016,0.223145 0.677246,0.200684c0.272461,0.10791 0.544922,0.213379 0.806152,0.190918c0.635742,-0.189453 1.29007,-1.430664 1.895538,-1.876953c0.363251,-0.296875 0.896942,-0.211914 1.286591,-0.248047c-0.219238,0.414551 -0.798309,1.124023 -1.029297,1.40625c-0.491699,0.306152 -1.388672,0.518066 -1.434082,1.311035c-0.276337,1.07666 1.150391,0.947754 1.120117,1.869141c-0.060516,0.662598 -1.066895,-0.166504 -1.373535,0.648926c-0.435059,0.827148 0.140137,1.302246 0.340332,1.941406c0.041992,0.390137 -0.173828,0.802246 -0.264648,1.205566c-0.548828,0.96875 -1.010254,0.353516 -1.748535,0.813477c-0.620605,0.319824 -1.301758,1.299805 -1.9375,1.489258c-0.502899,0.175781 -0.938477,-0.180176 -1.328125,-0.145996c-0.518524,0.047363 -0.953613,0.875977 -1.816406,0.164551c-0.87793,-0.841797 0.121094,-1.324219 -0.094727,-2.094238l-0.529785,-1.266113c-0.737762,0.459961 -1.460449,1.052246 -1.218231,2.081543c0.359375,0.885254 1.222137,1.59668 0.771973,2.292969c-0.363312,0.29541 -1.143097,0.365234 -1.748566,0.813965c-0.737762,0.461426 -1.505859,1.842773 -1.751953,1.998047c-0.363281,0.294922 -0.75293,0.329102 -1.112305,0.624023l-1.305664,1.299805c-0.11377,0.14209 -0.11377,0.14209 -0.230957,0.28418l-1.626953,-0.51123l0.098145,0.910156c-0.650848,0.058594 -0.650848,0.058594 -1.18457,-0.024414c-0.400879,-0.09668 -1.195801,-0.155273 -1.399902,0.387695c-0.219727,0.414551 0.862823,0.711426 1.13916,0.817383c1.65332,0.771973 1.979004,2.581055 1.271484,3.303711c-0.47702,0.435059 -1.298309,0.115234 -1.831543,0.032227c-1.199707,-0.155273 -3.087891,-0.643555 -4.268555,-0.667969c-1.55954,0.138184 -1.05957,1.144531 -1.362274,1.960449c-0.076172,0.533203 -0.567902,0.839844 -0.654816,1.241211c-0.117676,0.141602 -0.102051,0.272461 -0.087402,0.402832c-0.014648,-0.130371 0.427734,1.538086 0.412598,1.407715c0.185547,0.508789 1.097656,0.427734 1.631348,0.510742c0.67334,0.200684 0.847656,0.581055 1.407227,0.925293c0.548828,0.211914 0.794922,0.058594 1.301758,-0.117188c1.166046,-0.105957 2.27832,0.452148 4.011719,-0.492188c0.374512,-0.164551 0.737793,-0.459473 0.839874,-0.731934c0.348145,-0.423828 0.174316,-0.804199 0.650848,-1.241211c0.594269,-0.579102 1.748535,-0.813965 2.357422,-1.262207c0.477051,-0.437012 0.132843,-1.193848 1.01416,-1.536133c0.635773,-0.1875 1.339874,0.274414 2.22168,-0.068359c0.76416,-0.200684 1.589355,-1.061523 2.357422,-1.261719c0.779297,-0.070313 1.263672,0.805664 2.346191,1.103027l4.294952,0.926758c0.132324,-0.01123 0.404755,0.09668 0.548798,0.21582c1.150391,0.946289 -0.507294,1.358398 -1.143066,1.547852c-0.506805,0.175781 -0.635712,0.187012 -1.157715,0.234375c0.147461,0.117676 0.158691,0.248047 0.302734,0.367188c0.548828,0.213867 1.873047,0.35791 2.353516,-0.07959c0.230957,-0.283691 0.20462,-0.544922 0.163086,-0.93457c0.50293,-0.175781 0.749023,-0.329102 0.953613,-0.874023c-0.041962,-0.389648 -0.21579,-0.768066 0.147461,-1.063477c0.230988,-0.283691 0.749023,-0.331055 1.142578,-0.367188c-0.605469,-0.731934 -1.097137,-0.425781 -1.89209,-0.486328c-0.400879,-0.094238 -0.560028,-0.344238 -0.964844,-0.438477c-0.389648,0.035645 -0.749023,0.331055 -1.297852,0.117188c-0.404785,-0.09668 -0.836395,-0.452148 -1.237274,-0.546875c-0.42041,-0.225098 -1.487335,-0.391602 -1.426788,-1.054199c0.102051,-0.272461 0.219238,-0.414063 0.476563,-0.437012c0.117676,-0.141602 0.246124,-0.15332 0.378448,-0.166504l0.185516,0.51123c1.385284,-0.518555 0.93457,0.177734 2.134277,0.333008c1.078613,0.296875 2.350098,-0.07959 3.447266,0.348145c0.677734,0.200195 0.458008,0.614746 1.04834,1.218262c0.719269,0.594238 1.744659,0.369141 2.652344,0.287598c-0.113281,0.14209 -0.245117,0.155273 -0.230438,0.283691c-0.219757,0.414551 0.068359,0.650879 0.344727,0.756836c0.975555,0.569824 2.425751,-0.61084 1.18454,-1.155762l1.994171,-0.966797c-0.964874,-0.438965 -1.442383,-0.001953 -2.709991,-0.808105c0.651398,-0.058594 0.779297,-0.069824 1.256836,-0.507324l0.075195,-0.533203l2.111359,-1.108887c-0.668945,1.11084 0.083954,0.78125 0.336914,1.941406c0.651337,-0.058594 1.457001,0.130371 2.108368,0.07373c0.506866,-0.177734 1.891632,-0.696289 2.254883,-0.991699c0.359375,-0.294922 0.450195,-0.696289 0.80957,-0.991211l1.50296,-0.660645c0.609344,-0.448242 1.071259,-1.015625 1.536133,-1.583496c0.230438,-0.283691 0.461914,-0.567383 0.867157,-0.471191c0.544922,0.213867 0.68457,1.515625 0.741211,2.036133c0.173859,0.378418 0.359375,0.885254 0.401398,1.276855c-0.080078,1.714355 -1.88089,2.007813 -2.966827,2.893066c-0.722656,0.590332 -1.275391,1.559082 -2.02832,1.890137c-0.96875,0.743652 -3.743164,1.780762 -5.014618,2.157227l-2.698242,0.504883c-0.620117,0.319824 -1.342773,0.910156 -1.546906,1.453125c-0.205078,0.544922 0.124054,1.171387 -0.496094,1.489258c-0.621094,0.319824 -3.205048,0.681152 -3.867676,0.611328c-1.066895,-0.168457 -0.707489,-0.463867 -2.266602,-0.32373c-1.426727,0.128906 -2.970703,0.399414 -4.442383,0.13623c0.230469,-0.283691 0.69632,-0.851563 0.783203,-1.252441c0.102081,-0.272461 -0.041504,-0.391602 -0.071777,-0.650879c-0.011688,-0.128906 -0.041992,-0.389648 -0.185516,-0.508789c-0.302765,-0.367188 -1.339874,-0.274414 -1.729492,-0.23877c-0.896973,0.211914 -0.737823,0.459961 -2.164581,0.588379l-4.794434,0.562012c-2.33493,0.208496 -4.200684,1.165527 -5.108856,1.24707c-0.650909,0.058594 -2.10791,-0.07373 -2.785187,-0.276367c-0.54834,-0.213867 -1.123505,-0.688477 -1.744629,-0.368652c-0.635742,0.188965 -0.839813,0.731934 -1.588867,1.061035c-0.753387,0.331543 -2.179688,0.459961 -3.035156,1.061523c-0.851563,0.602051 -0.406738,1.087891 -1.403809,1.570801c-0.505341,0.177734 -2.206543,0.198242 -2.856934,0.256836c-1.441895,-0.001465 -2.165039,0.588867 -3.422852,1.095703l-1.387207,0.518555c-0.504852,0.175781 -1.530731,0.399414 -1.748016,0.813477c-0.217804,0.412598 0.098145,0.910156 0.140106,1.301758c0.041504,0.389648 -0.045868,0.791016 -0.134735,1.193848c-0.67923,0.980469 -2.42923,1.793945 -2.143585,3.214844c0.227051,0.898926 0.760742,0.981934 1.76712,1.810547c1.322723,1.32666 2.311981,3.208984 3.736816,4.263184c1.841278,1.280762 4.505341,2.881348 6.783173,3.333496l3.95462,0.17041c2.11911,0.202637 3.746582,0.715332 5.971649,0.645508l4.88916,-0.83252c1.040527,-0.092773 2.584473,-0.363281 3.666504,-0.066406c1.08252,0.296875 1.294464,1.066895 3.243164,0.891113l2.713409,-0.374512c0.635712,-0.1875 1.142548,-0.365234 1.831512,-0.032227c1.672394,0.900879 -1.161621,2.599609 0.132355,3.666992c0.719208,0.592285 3.099121,0.771973 4.052704,1.080078c0.662598,0.072266 2.750977,1.197754 3.198273,1.684082c0.287079,0.236328 0.313446,0.497559 0.61618,0.864746c0.298828,0.367188 0.980499,0.567871 1.021484,0.959473c0.041992,0.389648 -0.797852,1.12207 -1.029297,1.405762c-0.710907,0.720703 -2.088379,2.552246 -1.312469,3.665039c0.302704,0.366699 1.124023,0.686523 1.543915,0.911621l3.788086,1.10498c1.641632,0.641602 1.782227,1.943359 2.777344,2.641602c0.704132,0.463379 1.873047,0.357422 2.796906,0.406738l3.905273,0.962891c1.358368,0.405273 0.791016,1.243164 1.857391,1.409668c2.251953,0.193359 5.708038,-1.825684 7.542969,-3.040527l3.72757,-1.911133c1.49118,-0.790527 2.833984,-1.700684 4.177734,-2.608887c2.546875,-1.935547 4.631805,-4.488281 5.895508,-7.360352c0.435547,-0.82666 1.668915,-2.777832 1.745117,-3.309082c0.173798,-0.804199 -0.663116,-1.254883 -0.340851,-1.939453c0.419952,-0.959473 2.115265,-2.293457 2.520538,-3.379395c0.336914,-0.556152 0.238281,-1.466309 -0.326172,-1.810547c-0.544952,-0.213867 -0.908234,0.081055 -1.990265,-0.21582c0.817383,-2.174316 2.296906,-4.27832 3.527344,-6.229004c0.567383,-0.837891 1.581055,-2.374512 1.600586,-3.42627c0.003906,-1.182617 -1.052734,-1.220703 -1.495117,-1.705078c-0.43161,-0.355469 -0.333008,-0.62793 -0.605438,-0.73584c-0.544922,-0.211914 -1.41507,0.259277 -1.948273,0.175781c-0.390625,0.03418 -0.677734,-0.202148 -0.950195,-0.308105c-0.419922,-0.225098 -0.923828,-0.049316 -1.313477,-0.015137c-0.585938,-1.786133 0.635742,-5.04834 1.234406,-6.80957c1.165039,-3.782715 2.724579,-7.602539 2.160156,-11.623535l-0.597687,-3.099121c-0.169922,-0.380371 -0.484375,-0.875977 -0.991211,-0.700195c-0.764618,0.200684 -1.438477,2.494141 -1.755859,3.178711l-1.755859,3.180664c-0.450165,0.696289 -0.742157,1.642578 -1.335938,2.221191c-0.477539,0.4375 -1.230469,0.766602 -1.850586,1.084473c-0.201141,-0.637695 -0.575165,-0.473145 -1.082001,-0.29541l-2.354492,1.262207c-0.491241,0.306641 -1.459991,1.050293 -2.111328,1.108887c-0.518555,0.047363 -0.82132,-0.319824 -1.584991,-0.121094c-0.518524,0.047363 -1.400391,0.389648 -1.805634,0.292969c-0.533234,-0.083008 -1.108429,-0.556152 -1.642609,-0.63916c-0.40036,-0.09668 -1.168945,0.104004 -1.543945,0.268555c-1.298798,0.117188 -3.331055,-0.490234 -4.673828,-0.762695c0.246094,-0.15332 0.506866,-0.175781 0.480469,-0.437012c0.189453,-0.67334 -0.847656,-1.763184 0.423828,-2.140137c0.128906,-0.01123 0.389648,-0.035645 0.518555,-0.046875l2.220703,-0.068359l1.288116,-0.246094c0.662079,0.072266 0.835907,0.450684 1.744141,0.369141l3.19043,-0.811523c1.301727,-0.117676 1.827118,1.150391 3.174774,0.240234c1.097687,-0.754883 2.130859,-3.345215 2.524445,-4.562012l1.134766,-2.86084l0.439423,-2.009277c0.495117,-1.491211 0.945313,-2.1875 0.763702,-3.878906l-0.264679,-2.473145c-0.113281,-1.040527 -0.325195,-1.810547 -1.396454,-0.794434c-0.828156,0.862793 -1.120117,1.808594 -2.444366,1.665039c-0.351563,1.608398 -0.128876,3.689453 -1.733368,4.622559c-0.609375,0.448242 -1.286133,0.245605 -1.917969,0.435059c-0.378937,0.164551 -0.871124,0.473145 -1.143585,0.365234c-0.389648,0.033691 -0.676758,-0.202637 -0.71875,-0.592285c0.072266,-0.531738 0.954102,-0.874023 1.332031,-1.039063c1.256866,-0.506836 1.892578,-0.696289 2.819366,-1.82959c0.563446,-0.839844 0.624023,-1.502441 1.074188,-2.19873c0.461914,-0.567383 0.867188,-0.472656 1.329102,-1.038574c0.347656,-0.425781 0.987335,-1.797363 1.320343,-2.352051l1.588867,-4.741219c0.768524,-1.383301 2.055664,-1.629395 2.392548,-3.368164l0.200226,0.639648c1.373993,-0.648926 1.362305,-1.961914 1.093719,-3.250488c0.779297,-0.070313 2.365234,0.049316 3.001007,-0.138184l2.947235,-1.84082c0.738281,-0.461914 1.953125,-1.358887 2.126953,-2.163086c0.204102,-0.542969 -0.639648,-2.306152 -0.942383,-2.67334c-0.155243,-0.248047 -0.298828,-0.367188 -0.575165,-0.473145c-0.677765,-0.202148 -1.570343,0.009766 -2.058624,-0.866699c-0.605469,-0.733887 -1.275391,-3.30127 -1.774384,-4.308105c-1.075195,-2.662109 -1.146484,-2.130371 -1.650421,-3.13623c-0.329102,-0.626953 -0.268524,-1.289551 -0.34082,-1.94043c-0.18457,-0.507813 -0.487305,-0.875 -0.513641,-1.13623c-0.057648,-0.52002 0.305634,-0.81543 0.654297,-1.240234c0.548828,-0.969727 0.464844,-1.75 1.05954,-2.329102c0.476563,-0.437012 0.896484,-0.210938 1.112305,-0.625c0.798828,-1.12207 -1.130859,-2 -0.480469,-3.241211c0.333008,-0.555664 1.275391,-1.559082 1.925812,-1.618164c0.503876,-0.175781 0.923798,0.04834 1.426727,-0.127441c0.492188,-0.307617 0.526367,-1.22998 0.730499,-1.773926c0.506805,-1.359375 1.301727,-1.298828 1.495087,-3.154785c0.060547,-0.662598 0.090851,-1.585938 -0.223602,-2.08252c-0.605499,-0.734863 -1.457062,-0.132324 -1.661163,0.411621c-0.450165,0.696289 -0.351563,1.608398 -0.268555,2.388672c-0.045868,0.791992 -0.193329,1.855957 -0.643555,2.553223c-0.548828,0.969727 -1.672852,0.282227 -1.990234,-0.214355c-0.155273,-0.249023 -0.052734,-0.520508 -0.082977,-0.781738c0.018524,-1.052734 -0.28421,-1.418945 -0.019562,-2.625c0.072266,-0.532715 0.567413,-2.021973 0.413086,-2.270508c-0.045898,-0.390625 -1.238251,-1.727539 -1.537109,-2.095703c-0.589844,-0.603516 -1.65332,-1.953613 -2.636688,-1.339355c-0.867188,0.471191 -0.685547,2.163574 -0.847687,3.097168c-0.08786,0.401855 -0.265594,1.206055 -0.655273,1.241211c-0.242157,0.15332 -0.676727,-0.202637 -0.960938,-0.438965c-0.734375,-0.722656 -1.180664,-1.208008 -1.305664,-2.379395c0.401367,0.094727 1.483398,0.392578 1.558624,-0.140137c-0.056671,-0.52002 -0.672852,-1.384766 -1.195313,-1.337402c-0.533234,-0.083496 -0.605469,0.448242 -1.313477,-0.013184c-0.575226,-0.474121 -1.850616,-2.593262 -2.456085,-3.327637c-0.759735,-0.98291 -1.895477,-1.800293 -3.007782,-2.357422c-0.673859,-0.201172 -2.865265,-1.056641 -3.473663,-0.607422c-0.246094,0.15332 -0.205078,0.542969 -0.306641,0.814453c-0.143555,-0.117188 -0.288055,-0.236328 -0.544922,-0.213379c-0.938477,-0.178223 -1.214844,0.897461 -1.275391,1.560059c0.026398,0.259766 0.083038,0.78125 -0.291992,0.945801c-0.37793,0.164551 -0.666016,-0.071777 -0.954102,-0.309082c-0.704071,-0.461914 -0.718719,-0.592285 -1.668915,-0.900879c0.185516,0.508789 0.371063,1.018066 0.685516,1.514648c0.763702,0.98291 1.282257,0.935547 1.161163,2.26123c-1.09375,-0.427734 -2.331055,-0.972656 -3.080109,-1.826172l1.010773,-0.353516l-0.027344,-0.259277c-0.416016,-0.226074 -1.842773,-1.280273 -1.899445,-1.800293c-0.041962,-0.390625 0.476593,-0.437988 0.435577,-0.828125c0.09082,-0.401855 -0.329132,-0.626953 -0.125031,-1.170898c0.347656,-0.425781 1.100586,-0.755859 1.043945,-1.276367c-0.030273,-0.260254 -0.317352,-0.496582 -0.589813,-0.603516c-0.560577,-0.344238 -1.555695,-1.04248 -2.149445,-0.464355c-0.476563,0.437012 -0.117188,1.324219 -0.381805,2.530273c-0.405304,-0.094238 -1.097656,-0.427246 -1.499023,-0.521973c-0.533203,-0.083496 -1.154327,0.234375 -1.84668,-0.09668c-0.953125,-0.309082 -1.293976,-1.066895 -2.115265,-1.387695c-1.513641,-0.651855 -2.785126,-0.274414 -4.200195,-0.016113c-0.647461,0.057617 -1.688446,0.151367 -2.308594,0.469238c-0.492188,0.307617 -0.711914,0.720703 -0.927734,1.134277c-0.578125,0.709473 -1.72168,1.07373 -1.607391,2.114258c0.226532,0.899902 1.021454,0.960449 1.308594,1.195801l0.829071,1.634766c-0.893524,0.210938 -1.313446,-0.013184 -2.088837,0.056152l-3.076691,0.669434c-1.574219,0.010742 -2.0625,-0.865234 -3.027344,-1.304199c-0.544922,-0.213867 -0.93457,-0.179199 -1.354492,-0.404297c-0.431641,-0.354492 -0.473145,-0.745117 -0.617188,-0.864746c-0.302734,-0.365723 -1.626953,-0.510742 -2.016602,-0.475586c0.026367,0.26123 0.041534,0.390625 -0.189453,0.67334c-0.219238,0.414551 -1.332001,1.040039 -1.850586,1.086426c-0.245605,0.15332 -0.650879,0.058594 -0.923309,-0.04834l0.072266,-0.532715c0.060516,-0.661133 -0.32959,-0.626465 -0.83255,-0.450195c-0.768555,0.200195 -1.22995,0.76709 -1.839325,1.21582c0.219727,-0.413574 0.423828,-0.95752 0.771973,-1.382324c0.47702,-0.437012 1.112793,-0.626465 1.733398,-0.944336l1.963837,-1.227051c0.49173,-0.306641 1.245117,-0.637695 1.604523,-0.932617c1.085907,-0.885742 1.312958,-3.664063 1.029266,-5.083984c-2.009277,0.835938 -1.476044,0.919434 -2.834473,1.69873c-0.491669,0.306641 -0.752899,0.330566 -1.127411,0.495117c-0.359863,0.295898 -0.450714,0.698242 -0.537598,1.099121l0,0zm13.782196,-4.783203l1.279327,0.936523l0.975586,1.750977c0.749969,-0.330078 0.851532,-0.601563 1.359375,-0.77832c0.245087,-0.15332 1.861328,0.227051 1.486298,-0.790039c-0.143555,-0.119141 -0.287079,-0.237305 -0.430634,-0.355469l-0.086914,0.401855c-0.431671,-0.355469 -1.006836,-0.82959 -1.555695,-1.043457c-0.548828,-0.212891 -2.380859,-0.179688 -3.027344,-0.12207l0,0zm4.397461,0.656738c1.816437,-0.162598 1.501953,-0.660645 2.542969,-0.753418c0.50293,-0.177734 1.308624,0.013672 1.842804,0.09668l-0.072296,0.531738c1.09375,0.427734 1.025391,-0.223145 1.832031,-0.033203c0.821289,0.320801 1.324219,1.327637 2.678711,1.730469c0.544922,0.214844 0.821289,0.320801 1.313507,0.01416c0.313477,0.497559 0.446259,0.486328 0.964813,0.438965c0.060577,-0.662109 0.434601,-0.827637 0.260742,-1.206055c-0.169891,-0.379395 -1.540009,-0.913086 -1.657227,0.412109c-0.461884,-0.616699 -0.21582,-0.77002 -0.385742,-1.147461c-0.461914,-0.616699 -1.384766,-0.665039 -2.021484,-0.476563c-0.268555,-1.289551 -0.097656,-0.911133 -1.895477,-1.800285c-0.563507,-0.34375 -1.800812,-0.889641 -2.466827,-0.961418c-0.791016,-0.060547 -0.995087,0.483391 -1.616211,0.802238c-0.347656,0.425781 -0.75293,0.330078 -1.112274,0.625488c-0.348633,0.424797 -0.264648,1.206047 -0.208038,1.726555l0,0zm27.443359,-5.747543l1.642578,1.824215c0.617188,0.863773 1.233429,1.728512 1.967804,2.450184c0.575165,0.474121 1.396454,0.794922 2.161102,0.595215c0.506866,-0.177246 2.039063,-1.759758 0.787109,-2.43602c-0.416962,-0.224613 -1.041016,0.09375 -1.426758,0.128418c0.030273,-0.922363 -0.026367,-1.442871 -0.253906,-2.342285c-0.026367,-0.260254 -0.082977,-0.780273 -0.59082,-0.603516c-0.620117,0.318848 0.110382,2.223141 -0.870117,1.654297l-0.416016,-0.225098l-0.43161,-0.355469c-0.464844,0.566406 0.082977,0.780273 0.530243,1.265621c0.575226,0.475101 1.017578,0.960445 1.104523,1.740719c-1.411133,-0.925285 -1.494141,-1.704586 -2.402374,-2.805656c-0.586914,-0.604492 -1.018524,-0.960449 -1.801758,-0.890625l0,0zm5.634796,-1.292969c0.355469,0.887207 1.748047,2.864746 2.702118,3.172848c-0.64743,-1.12402 -1.479492,-2.757809 -2.702118,-3.172848l0,0zm-96.149414,9.546371c0.389618,-0.034668 0.910126,-0.081543 1.168945,-0.10498l3.387207,1.009766c0.938446,0.178711 1.861816,0.227539 2.478485,1.091309c-1.687958,0.152344 -1.328125,-0.143555 -2.667969,-0.416992c-1.19577,-0.155273 -1.559082,0.140137 -2.482422,0.09082c-0.533661,-0.083496 -0.806152,-0.189941 -1.210938,-0.284668l-3.477509,0.574219c-0.92337,-0.04834 -1.124054,-0.687012 -1.672852,-0.900879c-0.560089,-0.344238 -1.066925,-0.16748 -1.559113,0.140137c-0.87793,0.341797 -1.73288,0.943359 -2.586395,1.545898c-1.591339,1.061523 -3.42627,2.277832 -4.57132,3.825684c-0.796387,1.12207 -0.597656,1.761719 -1.394531,2.883789c-0.80954,0.992188 -2.675293,1.947754 -3.935547,3.638184c-0.913544,1.26416 -0.830566,2.044434 -1.176758,2.470215c-0.23291,0.282715 -1.837372,1.21582 -2.213867,1.380371c-0.374512,0.164551 -0.76416,0.199707 -1.010254,0.354004c-0.361328,0.294922 -0.579102,0.708496 -0.79834,1.122559l-1.286591,1.428711c-0.333038,0.555176 -1.684097,2.646973 -1.757828,3.179688c-0.032227,0.922363 1.455063,1.314941 0.669922,2.567383c-0.115723,0.141113 -0.230957,0.283203 -0.34668,0.425781c-0.853027,0.601563 -1.082031,-0.297852 -1.744141,-0.369629c-0.808105,-0.19043 -2.009277,0.836914 -2.728516,0.244629c-0.446289,-0.485352 -0.255371,-1.158691 -0.310059,-1.679688c-0.200684,-0.638672 -0.488281,-0.875488 -0.673828,-1.384277c-0.331055,-0.628418 -0.067871,-1.834473 -0.987793,-3.06543c-0.472656,-0.745117 -1.019531,-0.958984 -1.441406,-0.000488l-0.306641,0.814453c-0.514648,-1.135254 -0.223633,-2.081543 -1.162109,-2.26123c-1.195313,-0.154297 -1.560547,1.32373 -2.256836,2.173828c-1.737305,2.126953 -2.026367,1.890137 -3.356934,2.928223l-1.765137,1.866699l-1.101074,0.755859c-0.592285,0.578613 -0.98584,1.796387 -1.290527,2.611816l-1.273438,5.238281c-0.27832,1.074707 -0.745605,2.82666 -1.88623,3.189941c-0.375,0.164551 -1.559082,0.140137 -1.962402,0.04541c-0.417969,-0.225098 -0.71875,-0.591797 -1.12207,-0.688477c-0.389648,0.036133 -1.430176,0.128418 -2.39502,-0.310547c-0.575195,-0.472656 -1.335938,-1.456543 -1.884766,-1.668457c-0.546875,-0.21582 -1.066895,-0.168457 -1.585449,-0.121094c-0.650879,0.056641 -1.559082,0.139648 -2.092773,0.056641c-1.354492,-0.403809 -2.229004,-2.427734 -2.743652,-3.563965c-0.185059,-0.508789 -0.529785,-1.266602 -0.947754,-1.491699c-0.575195,-0.474121 -1.269531,0.376465 -1.946777,0.174805c-0.533691,-0.083984 -1.714355,-1.291016 -2.404785,-1.624023c-0.144043,-0.118652 -0.577148,-0.473145 -0.821289,-0.319824c-0.259277,0.022461 -0.334961,0.556152 -0.435547,0.82666c-0.018555,1.053223 0.270996,1.289551 0.872559,2.024414c0.143555,0.117676 0.590332,0.604004 0.227051,0.898926c-0.605469,0.448242 -1.479492,-1.575195 -2.160645,-0.594238c-0.102539,0.272461 -0.087402,0.402344 -0.20459,0.542969l-0.259277,0.023926l-0.62793,-2.176758l-0.09668,-0.911133l-0.874023,-2.023438l-1.070801,1.015625l-0.255859,-1.159668l-0.357422,-0.887207c-0.200684,-0.638672 -0.71875,-0.592285 -1.210938,-0.286133c-0.96875,0.744629 -1.638672,1.855469 -2.244141,2.303711c-0.737793,0.460938 -1.299805,0.116699 -1.804688,0.293457c-0.620605,0.318848 -1.056152,1.145508 -1.24707,1.820313l-0.999023,5.344238c-0.864746,4.150879 -1.416992,5.119629 -0.94043,9.543457l0.525879,2.44873l0.494141,3.371582l0.440918,1.668457l0.260742,-0.024414c-0.181641,-1.691406 -0.128418,-4.849609 0.352051,-6.46875c0.469238,-1.748535 1.21875,-2.07959 1.256348,-4.185547l0.310547,1.682129c0.709473,-0.723145 0.654297,-1.243164 1.649902,-1.725586c0.331055,0.625977 0.474609,0.745605 0.688477,1.515625c0.200684,0.637207 0.255371,1.157715 0.586426,1.786133c0.32959,0.625977 0.602051,0.733887 0.917969,1.231445c0.302734,0.365234 0.501465,1.004883 0.686523,1.513672c0.359863,0.887695 0.643555,2.308594 1.723633,2.605469c0.422363,-0.95752 0.297363,-2.128418 0.3125,-3.182129c0.102051,-0.272461 0.149414,-1.063477 0.393555,-1.216797c0.635742,-0.189453 0.893066,0.970703 0.93457,1.360352c0.371094,1.018066 0.641602,2.308594 1.258301,3.170898c0.64502,1.125977 1.152344,0.948242 1.996094,2.711426l0.190918,-0.67334c0.35791,0.887207 -0.092285,1.585449 0.887695,2.15332c-0.056641,-0.520508 -0.162598,-2.743652 0.052734,-3.158203c0.102539,-0.272461 0.492188,-0.306641 0.753418,-0.329102l0.605469,4.412109c0.054688,0.520508 0.253418,1.160156 0.556152,1.527344c0.733887,0.722656 1.587402,0.119141 1.916504,0.74707l0.512695,2.317879c0.440918,1.668945 1.056152,3.716309 1.740723,5.22998c0.516602,1.136719 1.203613,2.652344 2.081543,3.492676c0.302734,0.367188 0.747559,0.853516 1.252441,0.675293c0.507324,-0.175781 0.306641,-0.81543 0.393555,-1.216309c0.075684,-0.531738 0.319824,-0.685059 0.408691,-1.087891c0.060547,-0.662598 -0.155273,-1.432617 0.177734,-1.986816c-0.173828,0.804199 0.098633,0.910156 0.183594,1.691406c0.111816,1.040527 0.367188,2.200684 0.739746,3.216797c0.556641,1.528809 0.970703,2.93457 1.903809,4.296875c0.618652,0.864746 2.043457,1.918457 2.90625,2.629883c1.180664,1.207031 2.344238,2.285645 3.769043,3.339355l1.699219,1.162109l1.411133,0.925293c1.25293,0.675293 1.385254,-0.520508 2.164551,-0.588867c0.404785,0.094727 1.827637,1.148438 2.259277,1.504395c2.1875,2.037598 1.468262,1.445801 2.978027,3.280762l3.405762,3.634766c0.87793,0.840332 1.967773,2.452148 3.165527,2.605469l1.197754,0.157227c1.339844,0.274414 2.838364,0.796387 4.238266,0.406738c0.520508,-0.047363 0.881866,-0.34082 1.114258,-0.624512c0.34668,-0.425781 0.550781,-0.96875 1.07132,-1.016113c0.533173,0.083496 1.772949,0.628418 2.319305,0.84375c1.383331,0.662598 3.341827,1.80127 4.812012,2.0625c1.47168,0.263184 2.527863,-0.883301 2.285675,-1.912598c-0.371094,-1.018066 -1.92627,-2.060547 -2.756866,-3.693359c-0.804199,-1.37207 -1.360352,-2.898926 -2.280273,-4.130859l-2.111328,-2.569336l-1.26413,-1.98877l-0.61673,-0.864258c-0.158691,-0.248047 -0.385712,-1.146973 -0.427734,-1.538574l-1.445313,-3.680176c-0.658691,-1.254395 -1.960419,-1.137207 -2.804184,-2.900391c0.6035,0.733887 1.755844,1.682129 2.575211,2.001953c-0.370636,-1.018066 -1.20166,-2.650879 -1.820343,-3.515625l-1.32225,-1.326172c0.71875,0.591797 1.293961,1.066895 2.232407,1.244629l0.276398,-1.07666c0.408661,-1.087891 0.783203,-1.252441 0.773895,-2.56543c-0.10791,-2.223145 -2.161102,-5.455078 -2.454086,-8.187019c-0.126953,-1.171387 0.136215,-2.376465 0.270493,-3.570313l0.036133,-2.105957c-0.041962,-0.390137 0.188965,-0.675781 0.264679,-1.205566l-0.024445,-1.443359c0.175781,-0.804199 0.277832,-1.07666 0.194855,-1.858398l-0.628448,-2.175781l-0.037582,-1.574219l-0.225098,-2.081055c-0.168457,-1.561035 0.671371,-2.293457 0.819321,-3.356934c0.075684,-0.533203 -0.598129,-1.918457 -0.88768,-2.154785c-0.417969,-0.225098 -1.311035,-0.013184 -0.993164,-0.698242c0.319824,-0.685059 1.49852,0.521973 1.801254,0.88916c0.378418,-1.347168 0.090851,-1.585449 -0.164551,-2.744629l-0.494125,-3.371582c-0.227051,-0.899414 -0.802246,-1.372559 -0.845703,-1.763184c0.088867,-0.402344 0.478516,-0.4375 0.94043,-1.003906c0.465347,-0.567383 0.6548,-1.241211 0.715347,-1.90332l0.02243,-2.23584c0.145996,-1.063965 1.044434,-2.458496 2.1875,-2.82373c1.154327,-0.234375 2.333038,0.972656 2.981934,0.915039c0.650879,-0.059082 0.96875,-0.743652 1.187988,-1.158203l1.498566,-4.338379l0.2612,-0.023926c0.64502,1.125977 1.322784,1.327148 2.198761,2.168457l0.748993,0.852539c0.144073,0.118164 0.390137,-0.035156 0.635742,-0.188477c0.461945,-0.566895 1.018066,-2.71875 0.688995,-3.346191c-0.185577,-0.508789 -0.760773,-0.98291 -0.961426,-1.621582c-0.041504,-0.390625 0.176239,-0.804199 0.393524,-1.217285c0.306671,-0.816406 0.467773,-1.750488 1.059601,-2.329102c1.173309,-1.287598 3.511719,-1.498047 4.936493,-0.442871c0.721191,0.592285 0.630371,0.994141 0.933105,1.361328c0.446289,0.485352 1.095215,0.427734 1.309082,1.196777c0.02832,0.260254 -0.030273,0.922363 -0.119141,1.324219c0.084961,0.780762 0.240234,1.029297 -0.064453,1.844727c-0.435059,0.827148 -1.157715,1.41748 -1.451172,2.363281c-0.406738,1.087891 0.257324,1.160156 0.094757,2.09375c-0.291534,0.946289 -1.001007,1.666992 -1.29248,2.612793c-0.334991,0.555664 -0.277863,1.075684 -0.883301,1.524414c-0.492188,0.306152 -1.286652,0.246582 -1.805206,0.292969c-0.766083,0.199707 -1.373505,0.648926 -1.994141,0.967285c0.026367,0.260742 0.054688,0.52002 0.211914,0.769043c0.215363,0.769043 0.864746,0.710449 1.498535,0.521973c1.025391,-0.222168 2.38382,-1.001953 3.392609,-0.172852c0.875977,0.841797 1.142548,3.313965 1.890106,4.166016c0.718781,0.592285 1.239288,0.545898 2.046906,0.736328c0.546844,0.213867 0.965332,0.438965 1.396454,0.794434c1.006836,0.828613 0.688965,1.514648 1.146515,2.129883c0.43161,0.354492 0.808105,0.191895 1.25293,0.67627l1.908661,3.112305l1.31546,-1.168945c0.446259,0.48584 0.966766,0.438477 1.02536,-0.223633c-0.041504,-0.389648 -0.253387,-1.157715 -0.427704,-1.538086c0.877899,0.841797 0.948212,1.492676 0.944336,2.675293c0.02832,0.259277 -0.073761,0.531738 0.084961,0.781738c0.055176,0.518066 0.687012,1.513672 1.118134,1.869141c0.562042,0.342285 0.936523,0.177734 1.428711,-0.128906c0.450195,-0.696289 0.713409,-1.90332 1.407715,-2.75293c0.581055,-0.709473 1.734894,-0.943848 2.777863,-2.221191c-0.272491,-0.105957 -1.093781,-0.425781 -1.006836,-0.828613c0.204071,-0.542969 0.983856,-0.613281 1.475555,-0.92041c0.723175,-0.590332 1.275391,-1.560059 1.436523,-2.493164l-1.58786,-0.121094l-0.936523,-0.178711l-1.299835,0.117676l-1.278809,-0.937012l-1.84668,-0.097168c0.317902,-0.685059 0.537109,-1.099609 1.316895,-1.169434c0.389679,-0.035156 0.936554,0.179688 1.182617,0.026367c0.504883,-0.177734 0.448242,-0.698242 0.811523,-0.993164c0.694366,-0.850586 1.717773,-1.07373 1.867676,-2.138184c1.066925,0.166504 1.299835,-0.116211 1.831543,-0.033203c1.095215,0.426758 1.436035,2.367188 1.9375,3.373535c-1.35495,-0.403809 -1.099609,0.755371 -1.131836,1.677734c0.492218,-0.306641 1.07132,-1.015137 1.576202,-1.192383l1.703125,-0.021484c0.389648,-0.035156 0.504883,-0.17627 0.881836,-0.341797c0.894501,-0.210938 1.484833,0.392578 1.957977,1.138184c0.492218,-0.306641 0.463867,-0.567383 0.147461,-1.064453l0.649414,-0.058594l-0.371094,-1.016602c-0.648926,0.057617 -0.794922,-0.060547 -0.983887,0.612793c-0.560059,-0.343262 -0.560059,-0.343262 -1.224121,-0.415527l0.478516,-0.436035l-0.030243,-0.26123c-1.108398,-0.557129 0.163055,-0.933594 0.352051,-1.60791c0.088867,-0.402344 -0.067871,-0.649902 -0.227081,-0.898926l1.632813,-0.672363c0.694336,-0.849609 1.284668,-0.246094 1.576172,-1.192383c1.339844,0.274414 0.898926,-1.394043 1.911133,-1.748047c0.244171,-0.15332 0.647003,-0.057617 0.908203,-0.081543c0.374512,-0.164551 0.749023,-0.329102 1.127472,-0.494629c0.518555,-0.046387 0.779755,-0.068848 1.282684,-0.24707c0.492188,-0.306152 0.942383,-1.003418 1.290558,-1.428223c0.230927,-0.285156 0.707489,-0.721191 0.810028,-0.993652c0.086945,-0.401855 -0.083496,-0.779297 -0.151367,-1.431152c0.533234,0.083008 0.92337,0.04834 1.267578,-0.376465c0.363312,-0.29541 0.306641,-0.815918 -0.242188,-1.029297c-0.128906,0.012207 -0.518555,0.047363 -0.646973,0.058594l1.793457,-1.606445l0.352051,-1.608398l-0.507294,0.176758l0.178192,-0.804199l-1.430664,0.128906c0.230957,-0.283691 0.927246,-1.134277 1.158234,-1.417969c0.609344,-0.44873 1.271484,-0.376465 1.578094,-1.193359c-1.283173,0.24707 -2.860809,1.439453 -3.670898,2.431641l-1.26416,1.689453l0.076172,-0.531738c-1.271484,0.377441 -1.188446,1.158203 -1.680664,1.464844l-0.245605,0.152832c0.389648,-0.034668 -2.221161,0.068359 -1.816406,0.164063c-0.664032,-0.072266 -1.383301,-0.664063 -1.958496,-1.13916c-0.433075,-0.35498 -0.732391,-0.72168 -1.224121,-0.414551l-2.433075,-1.883301c0.230438,-0.283691 0.348145,-0.425781 0.060547,-0.663086c-0.287628,-0.236816 -0.964844,-0.438965 -1.526886,-0.782715c-1.008789,-0.828613 -0.961426,-1.621582 -1.088379,-2.79248c-0.109375,-1.040527 -0.242157,-1.029297 -0.597656,-1.916992c-0.172363,-0.379395 -0.200684,-0.63916 -0.503387,-1.006348c-0.300781,-0.367188 -1.006348,-0.828613 -1.438019,-1.18457c-0.575165,-0.473145 -1.293945,-1.065918 -1.957977,-1.138184c-0.936523,-0.177734 -1.659668,0.412598 -2.469269,0.22168c-0.677216,-0.20166 -1.553711,-1.04248 -2.374512,-1.363281c-0.533661,-0.083496 -1.182617,-0.024902 -1.703125,0.021484c-0.02832,-0.260254 -0.08493,-0.780273 -0.357391,-0.887207c-0.416534,-0.225098 -1.169464,0.10498 -1.688019,0.151367c-0.52002,0.046387 -0.692383,-0.332031 -1.095215,-0.427734c-0.40332,-0.094727 -2.236816,-0.061523 -2.469238,0.22168c-0.246094,0.153809 -0.072266,0.532227 -0.04538,0.79248l0,0zm92.827118,-13.583969c1.063507,1.349609 2.962921,3.149902 4.563507,3.400879c-0.472687,-0.746582 -0.87796,-0.84082 -1.453156,-1.314941c-0.847656,-0.581055 -2.289032,-1.765625 -3.110352,-2.085938l0,0zm-10.399384,-5.241211l-0.329132,-0.627441c0.548828,0.212891 1.097687,0.426758 1.412109,0.924316c0.169922,0.378418 0.200195,0.638672 0.242188,1.029297c0.083008,0.780762 1.449249,2.497559 2.240265,2.557129c0.275391,0.106934 0.260742,-0.022461 0.521454,-0.046387l-0.669922,-2.567383c-0.302704,-0.367188 -0.676758,-0.20166 -1.123047,-0.687012l-2.702148,-3.173828c-0.159149,-0.249023 -0.760742,-0.98291 -0.673798,-1.384277c0.230469,-0.283691 0.881805,-0.342285 1.142548,-0.364746l-2.474579,-2.274414c-0.288116,-0.237305 -0.734375,-0.722656 -1.241241,-0.545898c-0.503876,0.176758 -0.693329,0.850586 -0.913055,1.263672c-0.215851,0.414551 -0.563477,0.839355 -0.522491,1.22998c0.185577,0.509277 0.776398,1.112793 1.076172,1.479492l2.304688,1.89502c0.589874,0.604492 0.888672,0.97168 1.709991,1.29248l0,0zm33.675751,-0.263184c-0.34079,-1.94043 -1.589844,-3.79834 -3.05368,-5.243164l-2.304718,-1.895508c-0.889648,-0.970703 -1.850555,-2.592285 -3.160126,-3.789063c-1.4375,-1.18457 -2.519531,-1.481445 -3.798859,-2.417969l-2.175751,-1.907227l-3.882843,-3.198738c-1.006836,-0.828611 -2.202118,-2.16748 -2.96286,-3.149414c-0.776398,-1.113281 -0.556671,-1.526855 -1.00296,-2.012207c-0.302704,-0.367188 -1.396454,-0.794922 -1.929688,-0.87793l0.204102,-0.543945l-0.964844,-0.438965c0.53714,-1.099121 -0.21582,-0.769043 -0.976563,-1.750977c-0.302734,-0.367188 -0.355469,-0.888672 -0.832031,-1.633789c-0.746094,-0.852539 -1.741211,-1.551758 -2.717773,-2.120117l-4.737305,-2.597166c-1.529266,-0.782225 -3.619141,-1.90918 -5.332977,-2.017575c-1.313507,-0.013675 -2.153351,0.718749 -3.44046,0.964843c-1.15329,0.235352 -3.64743,0.196775 -4.446259,1.318846c-0.809601,0.992186 1.218719,2.781248 1.953094,3.503904l2.054688,2.04834c0.590851,0.604492 0.760742,0.98291 1.362305,1.716797c0.579102,0.474121 1.699219,1.162109 2.161133,1.776855c0.458008,0.615723 -0.306641,0.816406 0.30957,1.680176c0.473633,0.745605 1.62793,1.693359 1.972656,2.451172c0.185547,0.508789 0.268555,1.289551 0.700195,1.645508c0.416046,0.225101 0.908203,-0.08252 1.297882,-0.117676c0.635712,-0.187988 2.501953,-1.143555 3.061523,-0.799314c0.560516,0.343262 2.474579,2.273439 2.921875,2.759771c0.287079,0.236328 0.874023,0.839844 0.787109,1.243164c0.071259,0.649902 -1.975586,-0.086426 -1.487335,0.789551c0.158203,0.249023 1.411163,0.924316 1.842804,1.280273l1.596649,1.433105l1.854492,1.409668c0.431641,0.355957 0.904327,1.101074 1.324219,1.32666c0.821289,0.320313 1.241241,-0.636719 1.949249,-0.175293c1.380829,0.664063 2.37207,2.546875 3.810516,3.730957c0.976563,0.568848 1.22171,0.415527 2.042969,0.736328c0.692413,0.332031 1.139679,0.817383 1.842804,1.279785c1.109375,0.557129 1.200195,0.155273 2.49411,1.22168c1.725586,1.420898 3.194336,2.866211 4.673828,4.441406c0.589844,0.603516 2.042969,1.918457 2.720734,2.120117c0.128876,-0.01123 0.256805,-0.022461 0.389648,-0.034668l1.487305,-0.790039c0,0 0.132782,-0.012695 0.117188,-0.14209c0.086884,-0.401855 0.030273,-0.922363 0.117188,-1.324707c0.09079,-0.401855 0.336914,-0.555176 0.409149,-1.087891c0.086914,-0.400879 0.003906,-1.182617 0.37793,-1.347168c0.378937,-0.165527 1.097687,0.426758 1.370117,0.533691l0,0zm-31.700195,-33.809574c-0.05661,-0.52051 -0.200165,-0.638672 -0.385742,-1.147459c-0.776367,-1.112795 -1.638672,-1.823245 -2.865234,-2.239748c-0.40036,-0.094238 -1.611328,-0.380371 -1.831055,0.0332c-0.333008,0.555177 1.078156,1.480469 1.494171,1.705566c0.431641,0.354981 0.980469,0.568849 1.412079,0.924808c0.835938,0.450195 1.237335,0.545408 2.175781,0.723633l0,0zm-50.879395,-10.936525c1.718262,0.10791 2.365265,0.050293 4.007355,0.69043c1.498505,0.522461 2.376434,1.363283 4.094727,1.472169l-1.9263,-2.060548l1.097687,-0.754883c-0.575226,-0.474121 -0.83255,-0.451172 -1.396515,-0.794434c-0.287567,-0.236816 -0.313965,-0.497559 -0.601563,-0.734375c-0.26123,0.023926 -0.912079,0.081543 -1.169434,0.10498c-0.768066,0.199708 -1.400391,0.38916 -2.281738,0.730469c-0.768524,0.199707 -1.790039,0.422852 -1.824219,1.346191l0,0zm7.875031,-3.59668c-0.189484,0.67334 -0.825226,0.861817 -1.434113,1.310059c0.143585,0.118164 0.158691,0.249024 0.302765,0.367188c0.419891,0.225098 2.554169,0.559082 3.08786,0.643066c1.312988,0.013672 1.358398,-0.77832 2.902344,-1.048828l1.933624,-0.304688c1.816376,-0.163574 4.298798,-0.254395 5.918457,-1.05664c-0.61673,-0.86377 -1.006378,-0.830078 -1.956543,-1.138184c-1.486847,-0.392578 -3.072784,-0.512695 -4.589844,0.01709c-1.400391,0.388672 -1.343781,0.90918 -3.163605,1.072754l-3.000946,0.138183l0,0zm-27.586945,222.66113c-30.333954,-6.476563 6.17041,1.285156 0,0l0,0z"/>
    </g>
   </g>
  </g>
 </g>
</svg>